#N canvas 299 178 788 627 12;
#X obj 245 171 unpack;
#X floatatom 245 221 0 0 0 0 - - -;
#X floatatom 259 198 0 0 0 0 - - -;
#X floatatom 322 221 0 0 0 0 - - -;
#X obj 137 221 print attack;
#X obj 46 221 print pitch;
#X text 322 243 amplitude;
#X text 332 258 (dB);
#X text 245 243 raw pitch;
#X text 232 267 and amplitude;
#X text 143 241 bang on;
#X text 143 263 attack;
#X text 41 241 cooked pitch;
#X text 58 258 output;
#X obj 266 100 fiddle~ 1024 1 20 6;
#X obj 251 36 adc~;
#X obj 247 299 hsl 128 15 0 127 0 0 empty empty empty -2 -8 0 10 -262144
-1 -1 0 1;
#X obj 193 368 phasor~;
#X obj 258 409 *~;
#X obj 258 578 dac~;
#X obj 446 279 hsl 128 15 0 127 0 0 empty empty empty -2 -8 0 10 -262144
-1 -1 0 1;
#X obj 443 299 dbtorms;
#X msg 443 323 \$1 50;
#X obj 443 347 line~;
#X floatatom 514 314 5 0 0 0 - - -;
#X obj 179 316 mtof;
#X obj 643 480 hsl 128 15 0 127 0 0 empty empty empty -2 -8 0 10 -262144
-1 -1 9600 1;
#X obj 640 500 dbtorms;
#X msg 640 524 \$1 50;
#X obj 640 548 line~;
#X obj 282 519 *~;
#X obj 260 346 phasor~;
#X obj 256 324 mtof;
#X obj 133 351 + 4;
#X obj 311 550 rev3~ 98 92 3000 50;
#X obj 521 397 line~;
#X obj 521 469 mtof~;
#X obj 521 445 +~ 48;
#X obj 521 421 *~ 36;
#X obj 236 490 vcf~ 5;
#X msg 521 373 \$1 30;
#X connect 0 0 1 0;
#X connect 0 1 2 0;
#X connect 1 0 25 0;
#X connect 1 0 16 0;
#X connect 1 0 33 0;
#X connect 2 0 20 0;
#X connect 14 0 5 0;
#X connect 14 1 4 0;
#X connect 14 2 0 0;
#X connect 14 3 3 0;
#X connect 15 0 14 0;
#X connect 17 0 18 0;
#X connect 18 0 39 0;
#X connect 20 0 21 0;
#X connect 21 0 22 0;
#X connect 21 0 24 0;
#X connect 21 0 40 0;
#X connect 22 0 23 0;
#X connect 23 0 18 1;
#X connect 25 0 17 0;
#X connect 26 0 27 0;
#X connect 27 0 28 0;
#X connect 28 0 29 0;
#X connect 29 0 30 1;
#X connect 30 0 19 0;
#X connect 30 0 34 0;
#X connect 31 0 18 0;
#X connect 32 0 31 0;
#X connect 33 0 32 0;
#X connect 34 0 19 0;
#X connect 35 0 38 0;
#X connect 36 0 39 1;
#X connect 37 0 36 0;
#X connect 38 0 37 0;
#X connect 39 1 30 0;
#X connect 40 0 35 0;
